<svg xmlns="http://www.w3.org/2000/svg" xmlns:xlink="http://www.w3.org/1999/xlink" width="128" height="128" viewBox="0 0 128 128">
  <defs>
    <style>
      .cls-1 {
        fill: #5d9b3f;
      }

      .cls-2 {
        fill: #fff;
        fill-rule: evenodd;
        filter: url(#filter);
      }
    </style>
    <filter id="filter" x="14" y="8.625" width="104" height="118.375" filterUnits="userSpaceOnUse">
      <feOffset result="offset" dy="9" in="SourceAlpha"/>
      <feGaussianBlur result="blur" stdDeviation="2.236"/>
      <feFlood result="flood" flood-color="#1c4300" flood-opacity="0.47"/>
      <feComposite result="composite" operator="in" in2="blur"/>
      <feBlend result="blend" in="SourceGraphic"/>
    </filter>
  </defs>
  <rect class="cls-1" width="128" height="128"/>
  <path id="_" data-name="?" class="cls-2" d="M109.771,64.169a31.855,31.855,0,0,0,2.69-9.111,42.014,42.014,0,0,0-2.756-21.686,56.631,56.631,0,0,0-6.5-11.646,70.511,70.511,0,0,0-10.574-11.6l-1.7-1.521-8.79,9.846,1.578,1.409a52.938,52.938,0,0,1,9.129,10.419,33.008,33.008,0,0,1,4.786,10.964,22.667,22.667,0,0,1-5.54,20.687,21.547,21.547,0,0,1-5.061,4.272,11.653,11.653,0,0,1-5.568,1.664,14.038,14.038,0,0,1-6.25-1.384,28.93,28.93,0,0,1-7.17-4.927l-7.384-6.593L39.892,79.872l9.4,8.4L63.663,73.192q11.412,8.942,21.8,8.742t19.514-10.423A30.553,30.553,0,0,0,109.771,64.169ZM32.97,90.421a11.482,11.482,0,0,0-4.257-.568,10.783,10.783,0,0,0-4.162,1.1,11.415,11.415,0,0,0-3.533,2.687,11.1,11.1,0,0,0-2.243,3.782,10.414,10.414,0,0,0-.571,4.2,11.863,11.863,0,0,0,1.073,4.133,10.64,10.64,0,0,0,2.627,3.537,10.864,10.864,0,0,0,3.874,2.267,11.323,11.323,0,0,0,4.2.571,10.747,10.747,0,0,0,4.074-1.069,11.114,11.114,0,0,0,3.5-2.656,11.442,11.442,0,0,0,2.271-3.813,11.161,11.161,0,0,0,.659-4.232,10.979,10.979,0,0,0-1.013-4.137,10.857,10.857,0,0,0-2.69-3.593A10.646,10.646,0,0,0,32.97,90.421Z"/>
</svg>
